<?xml version="1.0" encoding="UTF-8"?>
<svg xmlns="http://www.w3.org/2000/svg" viewBox="0 0 320 320" width="100%" height="320" role="img" aria-hidden="true">
  <style>
    /* Prefer theme CSS custom properties, with fallbacks to original values */
    :root{
      --accent-svg: var(--accent, #0969da);
      --stroke-svg: var(--accent, #0969da);
      --muted-svg: var(--text, #1D1D20);
    }
    svg{font-family:Arial,Helvetica,sans-serif}
    .draw{stroke-dasharray:300;stroke-dashoffset:300;animation:draw 900ms cubic-bezier(.2,.8,.2,1) forwards;fill:none;stroke-linecap:round;stroke-linejoin:round}
    .level1 .draw { animation-delay: 0.5s; }
    .level2 .draw { animation-delay: 3.0s; }
    .level3 .draw { animation-delay: 4.5s; }
    @keyframes draw{to{stroke-dashoffset:0}}
    .node{transform-box:fill-box;transform-origin:center;opacity:0;animation:appear 0.3s ease forwards;fill:#fff;stroke:var(--muted-svg);stroke-width:1.6;stroke-linecap:round;stroke-linejoin:round}
    .level0 .node { opacity:1;  }
    .level1 .node { animation-delay: 0.8s, 0.8s; }
    .level2 .node { animation-delay: 2.3s, 2.3s; }
    .level3 .node { animation-delay: 3.3s, 3.3s; }
    @keyframes appear { from { opacity: 0; } to { opacity: 1; } }
  </style>
  <g transform="translate(40,20)">
    <!-- level 0 -->
    <g class="level0">
      <!-- root node rendered later to be on top -->
    </g>
    <!-- level 1 (2 children) -->
    <g class="level1">
      <!-- connections -->
      <path class="draw" stroke="var(--stroke-svg)" stroke-width="2.4" d="M94 8 C78 40 60 56 44 76"/>
      <path class="draw" stroke="var(--stroke-svg)" stroke-width="2.4" d="M94 8 C110 40 130 56 148 76"/>
    </g>
    <!-- level 2 (each child expands to 3 children) -->
    <g class="level2">
      <!-- left subtree edges -->
      <path class="draw" stroke="var(--stroke-svg)" stroke-width="2" d="M44 76 C34 100 26 118 24 138"/>
      <path class="draw" stroke="var(--stroke-svg)" stroke-width="2" d="M44 76 C52 102 60 120 74 138"/>
      <path class="draw" stroke="var(--stroke-svg)" stroke-width="2" d="M44 76 C10 108 6 142 12 168"/>
      <!-- right subtree edges -->
      <path class="draw" stroke="var(--stroke-svg)" stroke-width="2" d="M148 76 C138 100 126 118 120 138"/>
      <path class="draw" stroke="var(--stroke-svg)" stroke-width="2" d="M148 76 C156 102 170 120 186 138"/>
      <path class="draw" stroke="var(--stroke-svg)" stroke-width="2" d="M148 76 C198 110 212 142 204 172"/>
    </g>
    <!-- level 3 (deeper branching on middle branches) -->
    <g class="level3">
      <!-- connect one of the left-level nodes to two more -->
      <path class="draw" stroke="var(--stroke-svg)" stroke-width="1.8" d="M74 138 C86 158 102 170 116 188"/>
      <path class="draw" stroke="var(--stroke-svg)" stroke-width="1.8" d="M74 138 C64 166 56 184 42 200"/>
    </g>
    <!-- nodes (rendered on top) -->
    <g class="level0_nodes">
      <circle class="node" cx="94" cy="8" r="6.8" fill="#fff" stroke="var(--accent-svg)" stroke-width="2"/>
    </g>
    <g class="level1_nodes">
      <circle class="node" cx="44" cy="76" r="5.2" fill="#fff" stroke="var(--muted-svg)" stroke-width="1.6"/>
      <circle class="node" cx="148" cy="76" r="5.2" fill="#fff" stroke="var(--muted-svg)" stroke-width="1.6"/>
    </g>
    <g class="level2_nodes">
      <circle class="node" cx="24" cy="138" r="4.8" fill="#fff" stroke="var(--muted-svg)" stroke-width="1.4"/>
      <circle class="node" cx="74" cy="138" r="4.8" fill="#fff" stroke="var(--muted-svg)" stroke-width="1.4"/>
      <circle class="node" cx="12" cy="168" r="4.8" fill="#fff" stroke="var(--muted-svg)" stroke-width="1.4"/>
      <circle class="node" cx="120" cy="138" r="4.8" fill="#fff" stroke="var(--muted-svg)" stroke-width="1.4"/>
      <circle class="node" cx="186" cy="138" r="4.8" fill="#fff" stroke="var(--muted-svg)" stroke-width="1.4"/>
      <circle class="node" cx="204" cy="172" r="4.8" fill="#fff" stroke="var(--muted-svg)" stroke-width="1.4"/>
    </g>
    <g class="level3_nodes">
      <circle class="node" cx="116" cy="188" r="4.4" fill="#fff" stroke="var(--muted-svg)" stroke-width="1.2"/>
      <circle class="node" cx="42" cy="200" r="4.4" fill="#fff" stroke="var(--muted-svg)" stroke-width="1.2"/>
    </g>
  </g>
</svg>
